<?xml version="1.0" standalone="no"?>
<!DOCTYPE svg PUBLIC "-//W3C//DTD SVG 20010904//EN"
 "http://www.w3.org/TR/2001/REC-SVG-20010904/DTD/svg10.dtd">
<svg version="1.0" xmlns="http://www.w3.org/2000/svg"
 width="913.000000pt" height="913.000000pt" viewBox="0 0 913.000000 913.000000"
 preserveAspectRatio="xMidYMid meet">
<metadata>
Created by potrace 1.14, written by Peter Selinger 2001-2017
</metadata>
<g transform="translate(0.000000,913.000000) scale(0.100000,-0.100000)"
fill="#000000" stroke="none">
<path d="M0 4565 l0 -4565 1770 0 c1239 0 1770 3 1770 11 0 5 -4 7 -10 4 -6
-4 -7 2 -1 16 8 23 61 39 61 19 0 -5 5 -10 11 -10 6 0 8 9 4 20 -4 12 -2 20 5
20 8 0 11 -14 8 -40 -3 -33 0 -40 14 -40 11 0 15 5 12 15 -4 8 -1 15 5 15 6 0
11 -7 11 -15 0 -8 5 -15 11 -15 6 0 9 9 6 20 -3 13 0 20 9 20 19 0 18 35 -1
54 -8 8 -11 17 -6 20 5 3 11 -1 15 -9 8 -22 22 -18 22 5 0 15 -7 20 -28 20
-32 0 -38 23 -10 39 14 9 15 12 3 20 -20 13 -25 71 -6 71 8 0 15 -4 15 -10 0
-5 6 -10 14 -10 13 0 14 38 1 59 -9 15 -38 14 -32 -1 2 -7 10 -12 16 -10 6 1
11 -2 11 -7 0 -5 -18 -11 -41 -15 -29 -5 -39 -11 -36 -20 3 -8 -1 -17 -9 -20
-9 -3 -14 1 -14 13 0 10 8 22 18 26 16 6 16 7 0 16 -22 12 -24 31 -3 23 18 -7
20 7 3 24 -20 20 0 26 28 7 19 -12 29 -14 37 -6 8 8 8 11 -1 11 -7 0 -12 12
-12 26 0 26 -1 26 -25 10 -13 -9 -26 -16 -28 -16 -3 0 -4 20 -3 44 1 32 4 41
12 35 7 -5 10 -19 7 -29 -7 -27 14 -25 38 2 16 20 18 20 19 6 0 -10 7 -18 15
-18 13 0 13 -2 3 -14 -9 -10 -15 -11 -20 -2 -5 7 -8 5 -8 -6 0 -21 46 -76 56
-66 4 5 -1 17 -10 27 -10 11 -15 25 -11 31 6 9 10 9 15 -1 12 -18 37 -20 37
-2 0 8 -6 12 -14 8 -11 -3 -13 1 -8 15 5 17 2 20 -22 20 -19 0 -24 3 -14 9 7
5 22 6 32 4 13 -4 19 0 19 11 0 12 -7 14 -31 9 -30 -6 -30 -5 -18 16 8 11 18
21 24 21 5 1 -1 7 -15 15 -23 12 -24 14 -6 21 10 4 27 2 37 -4 27 -17 31 -15
19 8 -8 16 -8 20 4 20 8 0 17 6 19 13 4 9 8 9 15 -2 8 -11 11 -10 19 4 10 17
12 17 40 0 28 -17 33 -17 63 -1 18 9 39 16 47 16 7 0 12 5 11 12 -2 6 8 15 22
19 14 4 20 7 15 8 -6 1 -18 13 -27 28 -10 16 -18 22 -18 16 0 -7 -5 -13 -11
-13 -6 0 -9 6 -6 14 4 9 -5 22 -21 32 -25 16 -26 16 -13 0 8 -9 15 -30 16 -46
2 -26 0 -28 -16 -20 -10 6 -16 16 -13 24 3 9 -5 15 -23 19 -15 3 -29 4 -31 2
-8 -8 20 -45 33 -45 17 0 19 -9 5 -30 -9 -13 -13 -12 -29 8 -23 26 -31 28 -31
6 0 -8 -5 -12 -11 -9 -6 4 -8 13 -5 21 3 8 1 14 -4 14 -6 0 -10 7 -10 15 0 8
-4 15 -10 15 -5 0 -10 -4 -10 -9 0 -14 -37 -20 -49 -8 -8 8 -14 8 -23 -1 -14
-14 -28 -16 -28 -2 0 5 16 12 35 16 20 3 35 12 35 20 0 8 -5 14 -10 14 -6 0
-9 6 -8 12 2 8 -6 12 -17 11 -11 -1 -23 4 -27 10 -6 9 -8 8 -8 -1 0 -11 -10
-12 -41 -7 -32 6 -40 4 -34 -5 5 -9 4 -11 -3 -6 -7 4 -11 19 -11 34 1 17 3 21
6 10 3 -11 13 -18 26 -17 17 1 18 2 5 6 -10 2 -18 11 -18 20 0 11 -7 14 -25
11 -26 -5 -35 6 -12 15 6 3 2 6 -11 6 -13 1 -20 -3 -17 -9 3 -5 -3 -10 -14
-10 -22 0 -36 30 -26 60 5 16 2 20 -14 20 -23 0 -28 -15 -8 -23 7 -3 4 -6 -7
-6 -12 -1 -16 -6 -12 -16 4 -11 -1 -15 -17 -14 -12 0 -16 3 -9 6 14 5 17 33 3
33 -5 0 -16 -10 -24 -23 l-16 -22 2 26 c1 19 5 25 16 21 11 -4 13 0 9 16 -4
12 -2 20 3 16 5 -3 9 -1 9 4 0 6 -7 12 -15 16 -8 3 -12 12 -9 21 4 9 0 15 -9
15 -24 0 -30 -18 -13 -36 17 -16 21 -34 8 -34 -12 0 -36 44 -33 60 2 8 8 19
14 23 7 4 -4 7 -23 5 -26 -2 -35 1 -35 12 0 8 -4 21 -9 28 -5 9 0 21 14 34 12
11 19 23 15 26 -3 4 -10 0 -15 -8 -15 -24 -22 -4 -12 34 6 19 8 45 5 57 -4 14
0 26 11 35 11 8 13 14 7 19 -6 3 -11 1 -11 -5 0 -6 -4 -8 -10 -5 -15 9 -12 25
5 25 10 0 15 11 15 35 0 21 6 37 16 43 15 8 15 10 0 15 -22 9 -8 40 15 34 11
-3 19 -1 19 4 0 5 -7 9 -15 9 -8 0 -15 8 -15 18 0 15 2 15 11 2 8 -12 9 -10 5
10 -3 14 -6 29 -6 34 0 4 -7 6 -14 3 -10 -4 -13 -1 -10 8 4 10 12 11 31 4 21
-8 24 -7 19 9 -4 11 2 30 15 45 29 38 4 33 -31 -5 -22 -26 -28 -29 -26 -14 2
11 8 22 14 24 21 7 13 21 -29 51 -22 16 -39 33 -39 36 1 4 -1 9 -4 13 -5 5
-11 -51 -7 -72 1 -4 -5 -19 -14 -32 -12 -18 -12 -24 -3 -25 7 0 4 -4 -7 -9
-11 -5 -15 -9 -9 -9 6 -1 10 -11 9 -24 -1 -12 -6 -20 -11 -18 -5 1 -8 7 -6 13
3 13 -26 40 -39 36 -8 -3 -6 -10 5 -21 15 -15 15 -17 2 -17 -9 0 -16 -6 -16
-12 0 -8 -3 -9 -8 -3 -4 6 -18 11 -32 13 -17 1 -21 -1 -12 -7 8 -4 12 -17 10
-27 -2 -13 3 -19 15 -18 22 2 22 -2 -3 -28 l-20 -22 0 22 c0 26 -6 27 -26 8
-17 -18 -18 -30 -1 -20 6 4 4 -2 -7 -14 -12 -14 -16 -29 -12 -46 5 -21 2 -25
-26 -31 -25 -6 -28 -9 -15 -16 9 -6 14 -18 12 -31 -6 -30 -13 -33 -33 -15 -21
19 -38 11 -21 -10 9 -10 8 -13 -2 -13 -8 0 -15 -11 -16 -26 -2 -37 -21 -54
-36 -33 -9 12 -18 14 -36 7 -13 -4 -26 -6 -29 -4 -2 3 7 8 22 12 25 6 39 44
15 44 -5 0 -8 -4 -4 -9 3 -5 1 -12 -5 -16 -5 -3 -10 0 -10 9 0 8 -6 17 -12 19
-7 3 1 6 17 7 17 1 24 4 17 7 -7 3 -25 2 -39 -2 -21 -5 -24 -8 -13 -15 24 -15
3 -24 -50 -21 -33 1 -50 -2 -50 -10 0 -7 10 -9 25 -7 26 5 32 -6 15 -32 -8
-12 -12 -13 -19 -2 -7 12 -13 11 -37 -2 -22 -13 -24 -15 -6 -11 24 7 31 -12
10 -33 -24 -24 -1 -21 25 3 14 14 33 25 41 25 8 0 17 6 19 13 4 9 6 9 6 -1 1
-16 -23 -42 -40 -42 -16 0 -38 -30 -39 -52 0 -10 -5 -18 -11 -18 -6 0 -9 7 -5
15 3 8 1 15 -4 15 -15 0 -12 -48 2 -52 7 -3 -6 -13 -30 -23 -39 -18 -55 -35
-32 -35 6 0 10 -13 10 -29 0 -25 -5 -30 -27 -33 -14 -2 -28 -9 -31 -17 -3 -10
2 -11 18 -6 19 6 22 4 17 -10 -4 -9 -7 -18 -7 -20 0 -2 -16 -7 -35 -11 -36 -6
-49 -24 -17 -24 14 0 14 -2 3 -9 -8 -5 -20 -7 -28 -4 -7 3 -13 0 -13 -7 0 -9
10 -11 30 -6 19 3 29 2 25 -4 -3 -6 -17 -10 -31 -10 -13 0 -24 -5 -24 -11 0
-6 9 -9 19 -6 10 2 25 1 32 -4 10 -6 8 -9 -8 -9 -13 0 -23 -5 -23 -11 0 -6 -7
-3 -16 5 -20 21 -28 65 -13 82 7 9 8 14 1 14 -13 0 -26 -36 -17 -50 3 -6 0
-13 -8 -15 -8 -4 -13 -20 -13 -41 1 -31 4 -34 26 -31 14 2 19 2 13 0 -7 -3
-13 -9 -13 -14 0 -5 -8 -9 -19 -9 -21 0 -35 -31 -32 -72 2 -30 -15 -37 -38
-15 -11 10 -12 7 -7 -16 7 -31 4 -33 -18 -11 -15 14 -16 14 -16 -5 0 -13 7
-21 18 -22 11 0 12 -2 4 -6 -7 -3 -19 1 -27 7 -12 10 -15 9 -15 -4 0 -9 6 -16
13 -17 6 0 3 -4 -8 -9 -17 -7 -17 -9 -2 -9 20 -1 23 -17 5 -24 -7 -3 -2 -6 11
-6 18 -1 21 -4 12 -14 -6 -8 -9 -16 -6 -19 3 -2 -9 -2 -26 0 -17 3 -27 7 -23
11 5 3 10 14 12 25 3 14 -1 17 -13 12 -9 -3 -13 -2 -10 4 3 5 -1 15 -8 22 -10
9 -12 22 -6 46 4 19 4 43 1 52 -4 10 -5 64 -2 120 3 56 2 104 -1 106 -6 4 -21
55 -24 84 -1 8 -5 22 -8 30 -7 20 -24 79 -31 112 -5 21 -3 28 9 28 8 0 15 3
15 8 0 4 -16 7 -36 7 -31 0 -39 5 -57 39 -22 40 -42 67 -64 91 -7 8 -13 17
-13 20 0 4 -9 20 -20 35 l-20 29 21 6 c14 5 18 10 11 17 -7 7 -2 18 15 34 31
28 43 30 44 7 0 -14 2 -13 9 4 6 15 21 24 47 28 21 3 53 13 71 21 38 16 66 18
57 4 -6 -10 21 -3 40 10 19 14 101 14 124 0 10 -6 11 -10 4 -10 -7 0 -13 -4
-13 -9 0 -12 49 -20 56 -10 3 5 -2 9 -11 9 -15 0 -15 2 -1 15 14 14 17 14 36
-5 29 -29 41 -25 33 10 -4 23 -2 30 8 28 8 -2 12 3 10 12 -15 55 -12 65 19 83
17 10 29 24 27 30 -6 17 12 49 23 42 6 -3 15 5 22 19 6 14 15 26 20 26 15 0
38 27 38 44 0 16 5 18 49 20 30 1 37 19 16 39 -17 18 -20 37 -4 37 5 0 7 5 4
10 -9 14 -35 -7 -35 -26 0 -8 -6 -14 -14 -14 -14 0 -14 14 -1 68 4 17 13 32
19 32 6 0 12 19 13 45 0 25 7 52 13 61 7 8 10 17 7 21 -4 3 -1 15 5 27 6 11
12 37 12 56 0 19 5 38 10 42 10 7 17 36 18 76 0 12 4 22 9 22 5 0 9 5 9 11 0
5 -4 7 -10 4 -6 -3 -10 -2 -10 3 0 6 7 12 15 16 8 3 12 12 9 20 -3 8 2 16 13
19 17 4 17 5 -1 6 -19 1 -19 1 0 23 17 19 17 21 2 15 -10 -4 -18 -2 -18 2 0 5
8 12 18 16 16 6 16 7 0 19 -20 15 -24 46 -7 46 6 0 8 7 5 16 -4 10 1 26 11 37
16 19 17 20 1 14 -12 -4 -15 -2 -11 9 3 7 9 14 14 14 4 0 6 13 4 30 -2 16 1
30 6 30 5 0 9 7 9 15 0 7 8 19 18 24 9 6 11 11 5 11 -19 0 -16 20 3 20 8 0 12
5 9 10 -4 6 -11 8 -16 5 -5 -4 -9 -1 -9 4 0 6 5 11 10 11 6 0 10 7 10 15 0 8
7 15 15 15 18 0 20 17 3 22 -9 3 -9 6 0 12 7 4 12 2 12 -3 0 -6 9 -2 20 9 12
12 18 26 14 32 -4 7 -3 8 4 4 7 -4 12 -2 12 3 0 6 7 11 17 11 15 0 15 1 0 18
-24 26 -21 42 8 42 16 0 25 6 25 15 0 8 7 15 15 15 7 0 19 8 24 18 10 16 10
16 11 -1 0 -10 3 -17 8 -15 55 27 64 35 69 60 3 15 10 28 15 28 5 0 7 -9 3
-20 -8 -25 27 -65 50 -56 29 11 65 -5 71 -30 3 -13 10 -24 15 -24 5 0 6 -7 3
-15 -4 -8 -1 -22 6 -30 6 -8 10 -20 8 -27 -3 -7 8 -38 24 -68 15 -30 28 -62
28 -70 0 -9 7 -25 15 -36 8 -10 15 -25 15 -33 0 -12 25 -70 66 -154 8 -16 14
-34 14 -42 0 -7 6 -18 14 -24 8 -7 18 -27 22 -44 3 -18 15 -44 25 -59 11 -14
19 -31 19 -37 0 -6 6 -21 12 -34 34 -61 75 -125 97 -153 15 -17 34 -41 44 -53
9 -12 17 -26 17 -31 0 -6 7 -13 15 -16 8 -4 15 -11 15 -17 0 -6 12 -23 26 -38
15 -15 32 -38 38 -50 6 -12 20 -27 31 -33 10 -6 25 -17 33 -23 7 -7 20 -13 27
-13 8 0 19 -9 25 -20 6 -11 17 -20 26 -20 8 0 19 -10 24 -22 5 -13 9 -20 9
-16 1 4 60 -31 132 -78 177 -115 225 -129 288 -85 14 10 42 24 61 31 19 8 38
18 41 22 3 5 16 10 29 11 12 1 32 14 43 29 13 18 30 28 46 28 26 1 61 21 61
35 0 4 38 46 85 93 47 47 85 91 85 99 0 7 7 16 15 19 8 4 24 26 34 50 11 24
27 47 35 50 9 3 16 12 16 20 0 8 9 22 20 31 11 10 20 23 20 30 0 7 11 20 25
29 14 9 25 25 25 35 0 11 5 19 10 19 6 0 10 9 10 19 0 11 6 26 13 33 7 7 26
36 42 63 16 28 35 59 42 70 23 37 37 76 34 93 -1 8 4 21 11 30 12 15 21 33 52
112 4 8 15 29 26 45 11 17 23 38 26 47 3 9 17 24 30 33 15 9 22 21 17 28 -16
25 -9 49 16 58 20 8 22 12 11 19 -13 8 -13 11 1 22 9 7 20 27 23 43 4 17 8 37
10 44 1 8 8 17 13 18 6 2 9 13 6 23 -4 14 0 20 11 20 19 0 22 20 4 20 -8 0 -4
7 6 15 13 10 23 12 30 5 5 -5 22 -10 36 -10 32 0 100 -60 100 -88 0 -11 6 -22
14 -25 7 -3 18 -23 23 -44 6 -28 14 -39 31 -41 17 -3 22 2 22 18 0 16 4 20 16
16 13 -5 15 -1 12 19 -3 14 -2 28 3 30 4 3 7 29 7 59 0 29 5 77 12 106 8 33 9
55 3 59 -9 5 -13 39 -17 126 0 17 -4 35 -8 41 -4 5 -9 40 -12 77 -6 68 -13 91
-49 139 -11 15 -16 31 -12 38 5 8 3 11 -6 8 -8 -3 -29 1 -48 9 -24 9 -38 10
-45 3 -5 -5 -18 -10 -29 -10 -10 0 -53 -33 -95 -74 -80 -78 -125 -112 -195
-147 -23 -12 -53 -30 -67 -40 -25 -18 -112 -51 -127 -48 -18 4 -93 -14 -93
-22 0 -12 61 -49 145 -88 39 -18 85 -40 103 -48 19 -9 44 -13 62 -10 l30 6 -6
-47 c-10 -72 -30 -147 -69 -252 -41 -109 -182 -396 -237 -482 -21 -32 -38 -66
-38 -76 -1 -34 -267 -377 -318 -409 -15 -10 -45 -31 -67 -49 -22 -17 -52 -38
-66 -45 -15 -8 -51 -31 -80 -52 -61 -42 -103 -47 -142 -17 -14 11 -28 20 -30
20 -3 0 -21 14 -39 30 -18 17 -36 30 -41 30 -5 0 -34 18 -66 40 -31 22 -62 40
-69 40 -7 0 -12 6 -12 14 0 8 -9 18 -20 21 -11 3 -20 10 -20 13 0 4 -50 59
-110 122 -61 63 -118 129 -127 145 -9 17 -44 73 -79 126 -34 53 -66 108 -70
122 -3 15 -10 30 -15 33 -5 3 -9 13 -9 22 0 9 -14 44 -31 77 -16 33 -41 94
-56 135 -14 41 -35 95 -47 120 -23 47 -40 113 -51 192 -3 26 -10 50 -16 53 -5
4 -9 17 -9 30 0 22 5 25 61 31 34 4 67 14 76 23 9 9 17 14 17 12 2 -12 115 35
139 57 28 26 35 56 17 67 -6 4 -8 11 -5 16 11 17 -6 49 -26 49 -12 0 -17 4
-14 11 4 6 1 10 -6 9 -22 -3 -59 11 -54 20 3 5 -3 11 -14 15 -10 3 -30 16 -44
29 -14 13 -60 40 -101 60 -81 39 -85 43 -279 244 -119 123 -147 147 -147 122
0 -5 -10 -10 -22 -10 -13 0 -45 -20 -73 -46 -27 -26 -59 -54 -70 -63 -23 -19
-65 -76 -65 -89 0 -5 -9 -17 -19 -26 -11 -10 -25 -32 -32 -49 -7 -17 -21 -39
-31 -49 -10 -10 -15 -24 -12 -33 4 -8 2 -15 -3 -15 -5 0 -18 -26 -28 -57 -25
-72 -25 -194 -1 -277 15 -53 62 -153 77 -166 3 -3 21 -45 39 -95 30 -79 33
-101 32 -180 -2 -95 -3 -105 -19 -145 -6 -14 -8 -31 -6 -37 3 -7 -2 -13 -12
-13 -9 0 -14 -4 -11 -9 7 -11 -20 -34 -32 -27 -12 7 -69 -21 -80 -40 -13 -23
-96 -29 -126 -8 -15 9 -35 14 -45 11 -11 -2 -32 4 -48 14 -30 20 -68 26 -58 9
8 -13 -8 -13 -37 1 -13 5 -34 33 -48 62 -13 29 -29 58 -35 66 -5 8 -11 26 -12
40 -3 58 -3 342 0 426 4 91 -16 313 -32 350 -5 11 -19 64 -32 118 -12 53 -26
97 -30 97 -4 0 -7 8 -7 18 2 17 -7 38 -72 177 -21 44 -50 116 -64 160 -15 44
-31 89 -35 100 -8 17 -16 56 -47 220 -3 17 -10 33 -15 36 -11 6 -15 71 -6 86
4 6 1 16 -7 22 -7 6 -12 25 -11 43 2 18 -4 41 -13 51 -12 14 -13 22 -3 43 9
20 9 30 0 40 -6 8 -9 19 -6 26 5 16 4 34 -3 31 -3 -1 -6 14 -7 33 -1 19 -8 48
-17 64 -12 26 -12 30 0 30 8 0 14 -5 14 -12 0 -6 3 -9 6 -6 3 4 -1 17 -10 30
-13 20 -14 27 -2 44 7 10 16 48 19 84 9 85 26 133 64 173 17 17 34 47 38 65 4
18 11 29 16 26 6 -3 13 3 16 14 2 11 16 25 29 31 13 6 24 15 24 21 0 5 7 10
16 10 10 0 14 6 10 15 -3 8 -2 15 3 15 13 0 51 36 51 48 0 18 39 34 89 38 25
2 47 8 49 14 2 5 12 10 23 10 10 0 19 5 19 10 0 6 11 10 25 10 14 0 25 4 25 9
0 6 15 11 33 13 l32 3 -3 65 c-2 40 -9 69 -18 76 -7 6 -11 14 -7 17 3 4 2 7
-4 7 -6 0 -8 11 -5 25 2 15 -2 33 -11 43 -9 10 -23 42 -31 72 -7 30 -26 96
-40 146 -32 111 -35 121 -51 209 -7 39 -20 95 -28 125 -27 98 -59 283 -63 358
-1 40 -6 77 -10 83 -4 7 -23 8 -53 4 -49 -8 -78 -8 -236 1 -55 3 -103 10 -106
16 -4 6 -14 8 -24 5 -9 -4 -44 6 -80 23 -35 17 -71 30 -79 30 -8 0 -29 8 -48
17 -61 31 -68 33 -87 33 -10 0 -30 15 -44 33 -14 19 -58 55 -97 82 -40 27 -74
55 -77 62 -3 7 -11 13 -19 13 -8 0 -14 3 -14 8 0 4 -14 21 -30 39 -17 18 -30
35 -30 39 0 4 -11 17 -25 30 -14 13 -25 26 -25 29 0 11 -58 65 -70 65 -7 0
-10 7 -7 14 4 9 -2 17 -14 21 -12 4 -18 12 -15 21 3 8 -3 29 -13 46 -12 21
-18 47 -16 70 2 21 -1 40 -6 44 -5 3 3 21 17 40 23 30 32 34 73 34 26 0 56 -7
67 -15 10 -8 28 -15 39 -15 12 0 25 -4 30 -9 6 -6 48 -12 95 -16 47 -3 117
-10 155 -16 91 -13 227 -6 450 25 214 30 315 56 391 102 31 19 62 34 69 34 8
0 15 5 17 12 2 6 26 17 54 24 27 7 68 19 91 28 57 21 106 21 184 -1 81 -22
116 -51 154 -128 17 -33 33 -61 38 -63 4 -2 7 -11 7 -20 0 -9 16 -32 35 -51
l34 -33 18 41 c10 23 21 41 25 41 3 0 9 14 13 30 4 17 11 30 16 30 5 0 9 7 9
16 0 8 11 31 24 51 14 19 22 41 20 48 -3 6 2 18 11 25 8 7 15 19 15 26 0 8 5
14 10 14 6 0 10 8 10 18 0 18 26 55 67 97 12 13 20 25 17 27 -9 9 58 59 99 74
9 3 17 10 17 15 0 5 7 9 15 9 9 0 18 7 21 15 4 8 14 15 23 15 9 0 21 4 26 9 6
5 37 18 70 30 56 19 77 20 325 17 146 -2 272 -7 280 -10 23 -9 157 39 214 78
28 19 69 40 91 48 22 7 42 15 45 18 24 26 170 44 201 24 7 -4 26 -7 41 -6 15
1 28 -2 28 -8 0 -5 24 -17 54 -25 30 -9 60 -23 67 -32 25 -30 65 -36 235 -37
149 -1 174 -3 191 -18 11 -10 25 -18 32 -18 22 0 86 -39 126 -77 23 -21 61
-51 85 -68 25 -16 48 -34 51 -39 4 -5 16 -6 28 -3 12 3 24 0 29 -8 13 -23 98
-34 153 -20 28 8 51 9 54 4 3 -5 48 -6 100 -3 86 6 98 4 150 -20 32 -14 63
-26 70 -26 7 0 24 -11 39 -25 14 -13 26 -21 26 -18 0 3 18 -12 39 -33 21 -22
55 -54 75 -73 20 -19 36 -42 36 -52 0 -11 6 -19 13 -19 13 -1 57 -87 57 -112
0 -9 6 -18 14 -21 7 -3 16 -19 20 -36 3 -17 9 -46 12 -63 4 -18 14 -43 22 -55
8 -13 12 -29 9 -38 -4 -8 -2 -17 2 -19 11 -7 21 -54 28 -131 3 -33 9 -67 13
-75 9 -16 18 -76 25 -150 7 -90 16 -154 21 -162 4 -5 13 0 21 11 8 12 11 26 8
31 -3 6 1 10 9 10 9 0 15 3 14 8 -3 14 16 47 35 61 10 7 16 20 13 28 -4 11 -2
13 9 9 8 -3 15 -1 15 4 0 6 7 10 15 10 8 0 15 7 15 16 0 8 3 13 8 10 4 -2 48
0 97 6 99 11 182 -1 245 -34 19 -10 44 -18 56 -18 11 0 29 -9 39 -20 10 -11
24 -20 30 -20 7 0 19 -7 26 -16 7 -9 22 -20 34 -25 11 -5 38 -20 60 -32 22
-12 69 -33 105 -45 36 -13 72 -26 80 -29 8 -4 25 -8 37 -9 12 -2 36 -11 55
-20 18 -10 51 -19 72 -21 22 -3 48 -10 59 -18 11 -7 25 -11 32 -8 8 2 24 -1
36 -8 13 -7 55 -15 94 -20 174 -18 335 -40 352 -47 46 -19 94 -56 89 -68 -3
-7 0 -14 6 -16 6 -2 12 -26 12 -53 1 -39 -3 -49 -17 -53 -13 -3 -15 -7 -7 -12
21 -13 -18 -54 -87 -94 -34 -20 -67 -36 -72 -36 -6 0 -34 -11 -63 -24 -29 -13
-87 -34 -128 -46 -41 -12 -86 -25 -100 -30 -14 -4 -65 -15 -115 -24 -79 -13
-133 -20 -265 -32 -19 -1 -38 2 -41 8 -4 6 -12 7 -20 2 -17 -10 -111 -5 -126
8 -7 6 -20 8 -29 4 -21 -8 -107 14 -117 31 -5 7 -12 11 -18 8 -5 -4 -16 1 -25
9 -8 9 -23 16 -33 16 -14 0 -17 -10 -16 -60 0 -33 2 -60 5 -60 9 0 6 -94 -2
-101 -4 -3 -9 -30 -10 -60 -1 -29 -6 -63 -11 -73 -5 -10 -13 -49 -18 -85 -7
-59 -50 -207 -108 -371 -17 -47 -83 -182 -139 -285 -19 -34 -23 -135 -5 -156
6 -8 13 -32 17 -54 10 -62 11 -69 20 -83 4 -7 5 -20 2 -30 -3 -9 1 -40 8 -69
9 -33 10 -55 4 -61 -6 -6 -6 -12 1 -16 7 -5 8 -13 2 -25 -6 -10 -11 -29 -13
-44 -2 -14 -7 -29 -10 -33 -4 -3 -4 -12 -1 -20 3 -8 0 -21 -7 -29 -7 -8 -9
-22 -6 -31 7 -19 -30 -129 -56 -163 -9 -12 -20 -39 -24 -60 -3 -20 -12 -45
-19 -56 -7 -11 -16 -36 -20 -55 -4 -19 -18 -58 -31 -87 -13 -28 -24 -55 -24
-59 0 -15 -42 -94 -50 -94 -4 0 -10 -14 -14 -32 -3 -17 -17 -45 -30 -62 -12
-17 -29 -49 -36 -71 -7 -22 -20 -49 -30 -60 -10 -11 -23 -38 -30 -60 -7 -22
-26 -55 -42 -73 -15 -18 -26 -37 -23 -43 4 -5 2 -9 -4 -9 -5 0 -13 -10 -16
-21 -4 -12 -22 -42 -41 -66 -19 -25 -37 -57 -41 -71 -3 -15 -14 -40 -23 -57
-39 -71 -45 -167 -15 -245 16 -41 35 -151 35 -203 0 -20 4 -38 9 -41 4 -3 7
-16 6 -28 -1 -13 -3 -38 -4 -55 -1 -24 -6 -33 -18 -34 -11 0 -13 -3 -5 -6 19
-8 15 -17 -43 -107 -57 -88 -107 -132 -178 -155 -21 -7 -45 -10 -53 -7 -8 3
-25 -1 -38 -9 -13 -9 -31 -13 -40 -9 -13 5 -16 -1 -16 -30 0 -20 -4 -36 -10
-36 -5 0 -10 5 -10 12 0 6 -2 9 -5 6 -8 -7 16 -68 26 -68 5 0 9 -9 9 -20 0
-24 -35 -28 -44 -5 -3 8 -11 15 -17 15 -8 0 -6 -7 4 -18 10 -10 17 -24 17 -30
0 -7 7 -12 16 -12 12 0 15 -6 10 -26 -7 -26 12 -84 27 -84 5 0 5 5 2 10 -11
18 2 10 34 -19 32 -30 40 -51 20 -51 -6 0 -9 -9 -6 -20 4 -16 0 -20 -17 -20
-13 0 -25 -3 -29 -6 -10 -10 4 -34 21 -34 8 0 24 -7 34 -16 10 -9 31 -17 48
-18 22 -1 30 -6 30 -19 0 -12 4 -16 13 -10 14 9 47 5 63 -8 6 -5 14 -6 17 -2
7 6 37 -15 37 -26 0 -3 -11 -11 -25 -17 -20 -10 -25 -9 -28 5 -3 11 -5 8 -6
-6 -1 -13 -7 -23 -16 -23 -18 0 -20 -19 -2 -21 6 -1 39 -3 72 -4 74 -3 148
-19 153 -34 2 -6 12 -11 22 -11 10 0 22 -4 25 -10 3 -5 14 -10 23 -10 9 0 27
-11 40 -25 13 -13 27 -24 30 -24 26 4 41 -3 36 -16 -4 -9 0 -15 10 -15 28 0
17 -34 -25 -75 -42 -41 -63 -80 -53 -96 3 -5 0 -9 -6 -9 -7 0 -9 -8 -5 -21 5
-14 2 -25 -6 -30 -11 -7 -11 -9 -1 -9 8 0 10 -5 5 -12 -4 -7 -9 -24 -11 -38
-2 -13 -8 -30 -14 -37 -8 -10 -7 -13 3 -13 9 0 10 -3 4 -8 -5 -4 -12 -18 -14
-32 -1 -14 -8 -29 -15 -33 -8 -6 -8 -10 2 -14 16 -6 15 -23 -2 -23 -8 0 -16 7
-20 15 -8 22 -25 18 -19 -5 3 -11 15 -23 27 -26 13 -3 27 -18 34 -36 6 -18 11
-32 9 -33 -36 -18 -57 -23 -57 -14 0 6 -5 7 -11 3 -6 -3 -9 -15 -6 -25 3 -12
0 -19 -9 -19 -20 0 -19 69 1 76 20 8 19 20 -2 28 -10 3 -31 14 -48 24 -16 11
-36 17 -44 14 -7 -3 -17 1 -22 9 -8 12 -11 12 -19 -1 -8 -12 -10 -12 -8 5 3
44 -3 74 -18 89 -8 9 -12 20 -9 26 3 5 -1 10 -9 10 -9 0 -16 -7 -16 -15 0 -8
-9 -15 -20 -15 -11 0 -20 -6 -20 -13 0 -23 12 -28 26 -10 10 15 12 13 11 -20
-1 -29 -5 -37 -19 -37 -10 0 -18 -4 -18 -10 0 -5 -4 -10 -8 -10 -5 0 -9 22 -9
50 -1 40 3 51 18 55 11 4 17 11 14 16 -4 5 1 12 9 15 17 7 22 34 6 34 -5 0
-17 -12 -27 -27 -10 -16 -22 -31 -27 -35 -14 -10 -46 10 -46 28 0 9 -7 23 -16
31 -13 14 -17 14 -25 2 -5 -8 -9 -10 -9 -5 0 5 -7 3 -15 -4 -12 -10 -15 -10
-15 2 0 8 12 20 26 26 14 7 22 17 19 23 -5 7 -12 6 -22 -3 -13 -11 -18 -9 -31
10 -17 25 -62 31 -62 7 0 -8 5 -15 11 -15 8 0 8 -5 -1 -15 -7 -8 -10 -21 -7
-29 8 -19 -12 -36 -44 -36 -33 0 -46 -27 -23 -49 15 -15 16 -14 11 2 -8 22 18
23 27 1 9 -24 8 -26 -21 -22 -22 2 -30 10 -38 35 -7 25 -15 33 -32 33 -15 0
-21 5 -17 14 3 8 1 17 -5 21 -16 9 -14 25 3 25 7 0 19 7 26 15 8 10 24 14 39
12 14 -2 20 -2 14 0 -7 3 -13 9 -13 14 0 5 -7 9 -15 9 -8 0 -15 -3 -15 -7 0
-16 -57 -41 -71 -31 -11 8 -10 9 4 4 11 -3 17 0 17 9 0 25 -4 30 -20 27 -11
-3 -10 0 3 10 20 15 29 50 15 59 -5 3 -5 16 1 31 5 14 7 29 3 33 -4 4 -8 19
-8 33 -2 39 -3 39 -18 13 -8 -15 -10 -36 -6 -62 8 -41 1 -49 -20 -24 -7 8 -10
25 -6 40 5 19 2 25 -9 25 -9 0 -15 -7 -13 -16 4 -25 -19 -28 -27 -5 -7 22 -20
27 -29 12 -4 -5 -1 -11 6 -13 18 -6 0 -28 -23 -28 -20 0 -20 1 2 38 13 20 30
42 38 48 12 9 12 12 1 19 -9 5 -15 4 -18 -3 -2 -7 -12 -12 -23 -12 -18 0 -18
1 1 20 11 11 20 26 20 33 -1 7 -6 5 -14 -5 -18 -24 -29 -23 -17 1 12 21 5 32
-15 24 -8 -3 -14 0 -14 6 0 6 5 11 10 11 6 0 10 4 10 10 0 5 -7 7 -16 3 -12
-4 -14 -14 -10 -42 4 -20 8 -47 9 -61 1 -14 6 -28 12 -32 6 -5 6 -11 -1 -18
-13 -13 -7 -50 8 -50 5 0 6 -5 2 -11 -4 -7 -9 -7 -13 -2 -3 6 -16 12 -27 15
-21 5 -21 4 -8 -38 10 -33 10 -44 1 -47 -8 -3 -5 -11 8 -22 20 -16 19 -16 -7
-10 -16 3 -28 1 -28 -5 0 -5 7 -10 16 -10 8 0 13 -4 9 -10 -3 -5 -13 -6 -23
-3 -13 4 -11 0 5 -16 27 -25 29 -33 8 -25 -8 4 -15 1 -15 -5 0 -7 7 -14 15
-17 21 -8 19 -22 -2 -20 -11 0 -17 -6 -17 -17 1 -9 -2 -17 -7 -17 -5 0 -9 5
-9 10 0 6 -8 10 -17 10 -14 0 -15 -2 -4 -9 10 -7 11 -13 1 -31 -6 -12 -9 -24
-6 -27 8 -8 26 7 26 22 0 8 6 12 14 9 14 -5 10 -50 -5 -60 -5 -3 -6 2 -3 10 4
11 0 13 -15 9 l-21 -5 20 -18 c28 -24 25 -36 -5 -16 -27 18 -55 21 -55 6 0 -5
5 -10 10 -10 6 0 10 -11 10 -25 0 -14 -6 -25 -12 -25 -9 0 -8 -4 2 -10 13 -8
12 -10 -2 -10 -10 0 -18 5 -18 10 0 6 -5 10 -11 10 -8 0 -9 -15 -5 -45 4 -25
3 -45 -1 -45 -5 0 -10 12 -11 27 -2 30 -13 44 -19 26 -3 -7 -14 -11 -26 -9
-12 1 -17 1 -10 -1 25 -9 22 -33 -5 -39 -15 -3 -37 -9 -49 -14 -15 -6 -25 -5
-29 2 -5 8 -10 6 -18 -4 -6 -8 -28 -18 -48 -22 -34 -6 -38 -5 -38 13 0 14 -5
19 -15 15 -20 -8 -19 -34 2 -50 23 -16 10 -29 -16 -15 -13 7 -22 8 -26 1 -3
-5 -16 -10 -28 -10 -18 1 -15 4 11 15 31 14 32 16 18 31 -11 10 -25 14 -40 10
-15 -4 -26 -1 -29 7 -4 9 -8 9 -15 -1 -12 -17 -22 -17 -34 0 -7 9 -8 8 -6 -7
3 -15 10 -19 31 -17 19 2 27 -2 26 -10 -3 -26 1 -38 14 -38 6 0 21 -7 31 -15
19 -15 19 -15 -3 -15 -12 0 -20 4 -16 9 3 6 -3 9 -14 8 -15 -1 -17 -4 -8 -18
6 -10 15 -15 19 -13 4 3 13 -6 20 -20 9 -20 19 -26 44 -26 18 0 36 -4 39 -10
3 -5 13 -10 21 -10 11 0 12 4 4 19 -13 25 -13 31 1 31 5 0 8 -4 4 -9 -7 -12
31 -25 45 -16 6 4 10 -5 10 -20 0 -23 2 -25 21 -14 15 8 19 8 15 0 -5 -7 2
-11 18 -11 14 0 26 -2 26 -4 0 -9 -44 -81 -53 -87 -5 -4 -4 -10 3 -14 7 -4 16
-2 20 5 4 7 13 9 20 5 10 -6 9 -11 -5 -22 -22 -15 -12 -17 16 -3 26 14 24 28
-5 36 -20 5 -23 9 -13 19 10 11 13 10 20 -1 15 -26 26 -14 15 16 -13 39 -5 58
24 56 17 -1 22 -6 20 -21 -5 -28 -12 -32 -12 -7 0 15 -5 20 -15 16 -8 -4 -15
-13 -15 -21 0 -8 4 -11 10 -8 6 3 10 -5 10 -19 0 -31 18 -44 27 -19 6 16 8 15
13 -7 4 -14 2 -28 -3 -31 -5 -3 5 -29 22 -56 33 -54 39 -75 19 -71 -8 2 -12
-6 -11 -19 2 -13 -4 -23 -15 -26 -15 -3 -15 -5 3 -11 35 -13 49 -22 54 -37 3
-9 -2 -8 -14 4 -9 10 -20 15 -23 12 -4 -3 0 -10 8 -15 8 -5 11 -12 7 -16 -4
-4 -21 2 -37 14 -16 12 -33 22 -37 22 -4 0 0 -5 10 -11 21 -12 22 -29 2 -29
-8 0 -15 -3 -15 -7 0 -5 20 -7 44 -6 39 1 43 -1 39 -18 -4 -12 0 -19 10 -19 8
0 18 -7 21 -16 8 -21 8 -24 -4 -24 -5 0 -10 8 -10 18 0 13 -2 14 -9 3 -5 -8
-16 -11 -31 -6 -20 6 -21 4 -14 -17 4 -12 8 -33 7 -45 -1 -25 31 -33 40 -10 4
9 6 9 6 0 1 -10 364 -13 1781 -13 l1780 0 0 4565 0 4565 -4565 0 -4565 0 0
-4565z m7090 4301 c0 -17 -199 -176 -219 -176 -5 0 -19 -10 -32 -21 l-24 -21
25 8 c14 4 35 8 48 9 12 0 22 3 22 6 0 4 17 10 38 14 20 3 54 17 75 31 36 23
37 23 37 4 0 -22 -42 -51 -160 -112 -71 -37 -103 -58 -87 -58 20 0 149 41 200
64 32 14 64 26 72 26 8 0 15 5 15 10 0 6 7 10 15 10 8 0 15 -3 15 -7 -1 -11
-75 -63 -134 -94 -76 -39 -68 -48 26 -32 102 17 207 52 316 106 85 41 113 46
64 11 -52 -39 -165 -93 -267 -129 -70 -24 -113 -45 -95 -45 64 -1 307 60 396
99 26 12 50 19 53 16 22 -22 -224 -100 -413 -130 -80 -13 -20 -23 142 -24 66
-1 101 -5 97 -11 -3 -5 -40 -10 -81 -10 -49 0 -74 -4 -74 -11 0 -9 48 -10 183
-6 170 5 179 5 142 -10 -58 -22 -219 -45 -223 -32 -3 6 -9 5 -19 -2 -15 -13
-184 -15 -204 -4 -5 4 -9 2 -9 -4 0 -6 21 -26 47 -46 l48 -36 130 3 c71 2 138
8 148 12 10 5 17 4 17 -2 0 -6 -15 -15 -32 -21 -41 -13 -250 -41 -261 -34 -4
2 -29 6 -55 9 -139 12 -184 23 -179 46 1 6 -4 13 -12 16 -10 3 -12 0 -8 -12 6
-14 3 -15 -14 -5 -11 6 -22 9 -24 7 -17 -16 94 -73 192 -99 60 -16 95 -20 151
-15 39 3 72 4 72 2 0 -9 -110 -36 -145 -36 -39 0 -153 27 -170 40 -5 4 -28 13
-50 20 -57 18 -211 128 -292 209 -19 18 -37 31 -40 28 -10 -11 21 -62 55 -90
12 -10 22 -26 22 -36 0 -10 8 -25 18 -34 9 -9 26 -33 37 -54 11 -21 23 -40 27
-43 6 -5 48 -115 48 -127 0 -1 -4 -3 -10 -3 -5 0 -10 5 -10 10 0 27 -49 112
-98 170 -30 35 -59 74 -64 85 -5 11 -23 30 -39 40 -16 11 -35 32 -42 48 -6 15
-19 30 -28 32 -9 3 -35 23 -58 44 -45 41 -69 56 -86 52 -21 -5 -121 23 -140
39 -40 34 -260 57 -350 37 -52 -12 -157 -62 -194 -93 -29 -24 -61 -24 -61 0 0
31 102 95 197 123 70 22 260 24 341 4 41 -10 56 -11 67 -1 11 9 15 9 15 1 0
-6 5 -11 11 -11 5 0 7 5 4 10 -10 16 30 12 87 -10 59 -22 66 -23 161 -22 92 1
265 58 375 123 46 27 90 49 97 49 8 0 17 5 20 10 3 6 14 10 23 10 9 0 35 17
57 39 37 36 55 48 55 37z m-1812 -355 c10 -5 35 -6 57 -2 22 4 48 5 58 3 22
-4 16 -28 -6 -26 -9 1 -22 -11 -29 -26 -12 -28 -54 -50 -113 -60 -21 -3 -31
-11 -33 -26 -2 -17 -12 -23 -45 -27 -24 -3 -61 -14 -82 -24 -43 -19 -117 -72
-124 -87 -6 -14 -62 -69 -91 -89 -34 -23 -50 -22 -47 6 1 14 -3 21 -12 19 -12
-3 -12 0 -2 12 11 13 9 17 -14 26 -14 5 -31 10 -36 10 -17 0 -9 27 16 54 14
15 25 30 25 34 1 4 15 18 32 32 17 14 48 42 68 64 29 31 44 38 73 38 20 0 37
5 37 10 0 6 9 8 19 5 14 -3 18 -1 14 10 -3 7 -2 13 3 12 5 -2 27 2 49 9 33 9
78 18 158 31 5 0 16 -3 25 -8z m247 -41 c3 -5 -1 -10 -9 -10 -8 0 -18 5 -21
10 -3 6 1 10 9 10 8 0 18 -4 21 -10z m80 -15 c39 -32 19 -49 -29 -26 -28 14
-34 24 -27 49 3 9 31 -3 56 -23z m-981 -421 c3 -8 2 -12 -4 -9 -6 3 -10 10
-10 16 0 14 7 11 14 -7z m-1174 -5148 c0 -3 -4 -8 -10 -11 -5 -3 -10 -1 -10 4
0 6 5 11 10 11 6 0 10 -2 10 -4z m-80 -26 c0 -5 -2 -10 -4 -10 -3 0 -8 5 -11
10 -3 6 -1 10 4 10 6 0 11 -4 11 -10z m-140 -14 c0 -3 -4 -8 -10 -11 -5 -3
-10 -1 -10 4 0 6 5 11 10 11 6 0 10 -2 10 -4z m205 -16 c3 -5 1 -10 -4 -10 -6
0 -11 5 -11 10 0 6 2 10 4 10 3 0 8 -4 11 -10z m-305 -120 c0 -5 -8 -10 -17
-10 -15 0 -16 2 -3 10 19 12 20 12 20 0z m4700 -47 c18 -39 22 -40 35 -11 11
25 34 33 71 24 29 -8 31 -33 9 -96 -14 -41 -30 -120 -19 -92 8 18 28 15 42 -9
13 -20 9 -72 -8 -94 -12 -16 -37 -107 -39 -139 -1 -32 -30 -85 -103 -192 -26
-39 -48 -74 -48 -79 0 -5 -18 -30 -40 -56 -22 -26 -40 -52 -40 -58 0 -6 -4
-11 -8 -11 -5 0 -24 -23 -43 -50 -41 -60 -123 -120 -165 -120 -26 0 -34 -8
-69 -70 -21 -39 -46 -79 -55 -88 -22 -26 -35 -49 -70 -119 -16 -35 -33 -63
-38 -63 -4 0 -16 -17 -27 -37 -20 -40 -64 -101 -102 -143 -13 -14 -23 -30 -23
-37 0 -7 -4 -13 -9 -13 -5 0 -15 -16 -21 -35 -6 -19 -16 -35 -21 -35 -4 0 -16
-14 -24 -30 -9 -17 -30 -43 -48 -58 -18 -15 -66 -61 -108 -102 -90 -89 -139
-130 -155 -130 -6 0 -22 -8 -35 -19 -13 -10 -41 -21 -63 -25 l-39 -7 5 181 c3
118 9 185 16 192 7 7 12 25 12 40 0 16 6 28 13 28 6 0 20 17 30 38 10 20 33
55 52 77 19 22 35 45 35 52 0 20 92 132 175 211 243 234 262 267 268 456 2 63
7 101 15 104 6 2 9 9 6 16 -3 8 10 38 29 67 18 30 42 74 51 99 27 66 76 217
76 232 0 7 9 24 19 37 13 17 24 22 39 17 27 -9 62 -65 62 -100 0 -14 2 -26 5
-26 16 0 55 26 60 39 3 9 17 30 32 47 53 59 73 84 73 92 0 12 82 92 95 92 6 0
20 9 30 20 25 28 47 22 65 -17z m-6572 -474 c23 -17 42 -35 42 -39 0 -11 142
-201 163 -219 42 -34 24 7 -52 120 -45 67 -81 129 -79 138 4 21 45 26 75 10
25 -13 98 -109 145 -189 39 -66 192 -223 214 -218 11 2 26 23 37 53 54 140 71
175 97 200 29 28 30 28 50 10 23 -21 27 -85 9 -132 -15 -39 -26 -222 -16 -269
4 -22 17 -77 28 -124 62 -258 60 -254 130 -325 26 -27 58 -72 70 -100 12 -27
30 -61 39 -75 9 -14 25 -38 36 -55 67 -100 118 -369 88 -464 -3 -9 -8 -10 -17
-3 -6 6 -46 28 -87 49 -106 55 -121 65 -146 93 -12 14 -32 37 -45 51 -32 34
-88 113 -118 163 -13 23 -28 43 -33 45 -5 2 -14 13 -19 25 -5 11 -23 41 -39
66 -16 25 -34 55 -39 67 -6 12 -29 52 -52 88 -38 61 -49 70 -115 101 -72 35
-106 67 -189 179 -16 22 -56 69 -88 105 -32 36 -61 69 -65 73 -4 4 -44 43 -89
86 -81 76 -101 112 -69 124 15 6 92 -44 150 -97 21 -20 45 -36 53 -36 22 0
-19 69 -100 170 -38 47 -74 98 -81 115 -22 54 0 94 45 80 10 -3 38 -34 63 -68
50 -70 116 -137 116 -119 0 7 -12 25 -26 40 -14 15 -32 41 -41 57 -9 17 -35
55 -58 85 -49 65 -75 112 -75 138 0 42 32 43 88 1z m2062 -799 c0 -5 -2 -10
-4 -10 -3 0 -8 5 -11 10 -3 6 -1 10 4 10 6 0 11 -4 11 -10z m3340 -4 c0 -3 -4
-8 -10 -11 -5 -3 -10 -1 -10 4 0 6 5 11 10 11 6 0 10 -2 10 -4z m-3392 -53 c2
-7 -4 -13 -13 -13 -9 0 -14 4 -11 9 4 5 0 12 -6 15 -7 3 -4 5 6 3 11 -1 21 -8
24 -14z m69 -95 c-3 -8 -6 -5 -6 6 -1 11 2 17 5 13 3 -3 4 -12 1 -19z m2453
-24 c0 -8 -4 -12 -10 -9 -5 3 -10 10 -10 16 0 5 5 9 10 9 6 0 10 -7 10 -16z
m-30 -15 c0 -6 -4 -7 -10 -4 -5 3 -10 11 -10 16 0 6 5 7 10 4 6 -3 10 -11 10
-16z m53 -24 c-3 -8 -9 -15 -14 -15 -5 0 -9 -7 -9 -15 0 -8 -5 -15 -11 -15 -5
0 -8 -4 -4 -9 3 -5 1 -12 -4 -15 -18 -11 -20 25 -3 42 10 10 22 26 25 36 4 9
11 15 16 11 6 -3 8 -12 4 -20z m-2496 -57 c-3 -7 -5 -2 -5 12 0 14 2 19 5 13
2 -7 2 -19 0 -25z m-227 -24 c0 -2 -11 -4 -25 -4 -14 0 -25 4 -25 9 0 4 11 6
25 3 14 -2 25 -6 25 -8z m2760 -42 c0 -15 -2 -15 -10 -2 -13 20 -13 33 0 25 6
-3 10 -14 10 -23z m-33 2 c-3 -3 -12 -4 -19 -1 -8 3 -5 6 6 6 11 1 17 -2 13
-5z m-2839 -13 c9 -5 11 -17 6 -35 -5 -20 -9 -24 -15 -15 -6 11 -9 10 -15 -4
-3 -9 -10 -17 -15 -17 -14 0 -10 30 6 47 8 8 13 19 10 24 -8 11 6 12 23 0z
m3131 -33 c-1 -17 -3 -18 -6 -6 -3 11 -10 15 -20 11 -11 -4 -14 -2 -9 5 13 21
36 13 35 -10z m-3279 -42 c0 -3 -4 -8 -10 -11 -5 -3 -10 -1 -10 4 0 6 5 11 10
11 6 0 10 -2 10 -4z m30 -6 c0 -5 -4 -10 -10 -10 -5 0 -10 5 -10 10 0 6 5 10
10 10 6 0 10 -4 10 -10z m3440 -11 c-7 -11 -14 -18 -17 -15 -8 8 5 36 17 36 7
0 7 -6 0 -21z m-289 -42 c-8 -8 -11 -3 -11 19 1 25 2 27 11 11 8 -14 8 -22 0
-30z m-26 13 c3 -5 1 -10 -4 -10 -6 0 -11 5 -11 10 0 6 2 10 4 10 3 0 8 -4 11
-10z m312 -22 c-3 -8 -6 -5 -6 6 -1 11 2 17 5 13 3 -3 4 -12 1 -19z m-3527
-48 c0 -5 -5 -10 -11 -10 -5 0 -7 5 -4 10 3 6 8 10 11 10 2 0 4 -4 4 -10z
m3580 0 c0 -5 -4 -10 -9 -10 -6 0 -13 5 -16 10 -3 6 1 10 9 10 9 0 16 -4 16
-10z m-96 -16 c4 -10 1 -14 -6 -12 -15 5 -23 28 -10 28 5 0 13 -7 16 -16z
m177 -6 c10 -18 9 -20 -5 -15 -10 4 -20 -1 -26 -13 -6 -11 -15 -20 -20 -20 -8
0 2 24 23 58 11 17 14 15 28 -10z m-89 -15 c-6 -3 -9 -10 -5 -16 5 -9 3 -9 -8
-1 -8 6 -21 14 -29 18 -8 3 -5 4 7 2 13 -2 26 0 29 6 3 5 9 6 13 2 3 -4 0 -9
-7 -11z m-3552 -7 c0 -3 -4 -8 -10 -11 -5 -3 -10 -1 -10 4 0 6 5 11 10 11 6 0
10 -2 10 -4z m3520 -18 c0 -5 -11 -8 -24 -8 -14 0 -27 3 -29 8 -3 4 8 7 24 7
16 0 29 -3 29 -7z m120 8 c0 -3 -4 -8 -10 -11 -5 -3 -10 -1 -10 4 0 6 5 11 10
11 6 0 10 -2 10 -4z m0 -36 c0 -5 -7 -7 -15 -4 -8 4 -15 8 -15 10 0 2 7 4 15
4 8 0 15 -4 15 -10z m107 -9 c-1 -13 -7 -18 -20 -15 -28 5 -34 14 -17 24 24
15 39 11 37 -9z m-3736 -9 c-7 -2 -18 1 -23 6 -8 8 -4 9 13 5 13 -4 18 -8 10
-11z m2756 12 c-3 -3 -12 -4 -19 -1 -8 3 -5 6 6 6 11 1 17 -2 13 -5z m-1977
-24 c0 -5 -4 -10 -10 -10 -5 0 -10 5 -10 10 0 6 5 10 10 10 6 0 10 -4 10 -10z
m2876 -10 c8 0 11 -6 8 -15 -5 -12 -8 -12 -20 0 -8 7 -14 20 -13 27 0 10 2 10
6 1 2 -7 11 -13 19 -13z m-46 0 c0 -5 -5 -10 -11 -10 -5 0 -7 5 -4 10 3 6 8
10 11 10 2 0 4 -4 4 -10z m-990 -15 c17 -20 5 -31 -16 -15 -9 8 -18 10 -22 4
-9 -12 -32 -16 -32 -6 0 8 36 30 51 31 4 1 12 -6 19 -14z m947 9 c-3 -3 -12
-4 -19 -1 -8 3 -5 6 6 6 11 1 17 -2 13 -5z m172 -11 c21 -18 21 -18 1 -43 -16
-21 -21 -23 -32 -12 -11 11 -10 13 2 10 9 -2 16 6 18 20 2 12 -1 22 -7 22 -6
0 -11 -8 -11 -17 0 -12 -3 -14 -10 -7 -11 11 -3 44 10 44 4 0 17 -8 29 -17z
m-2994 -19 c-27 -25 -41 -29 -27 -8 6 10 42 33 51 34 2 0 -8 -11 -24 -26z
m2712 6 c1 -11 -3 -20 -8 -20 -6 0 -7 5 -4 10 3 6 1 10 -5 10 -6 0 -8 5 -5 10
10 16 21 11 22 -10z m-2552 -8 c-3 -3 -11 0 -18 7 -9 10 -8 11 6 5 10 -3 15
-9 12 -12z m1822 12 c-3 -3 -12 -4 -19 -1 -8 3 -5 6 6 6 11 1 17 -2 13 -5z
m800 0 c-3 -3 -12 -4 -19 -1 -8 3 -5 6 6 6 11 1 17 -2 13 -5z m86 -1 c-7 -2
-19 -2 -25 0 -7 3 -2 5 12 5 14 0 19 -2 13 -5z m-2938 -31 c-3 -3 -11 0 -18 7
-9 10 -8 11 6 5 10 -3 15 -9 12 -12z m168 1 c-4 -9 -10 -10 -24 -2 -26 13 -24
19 5 17 15 -1 22 -7 19 -15z m1652 7 c3 -5 1 -10 -4 -10 -6 0 -11 5 -11 10 0
6 2 10 4 10 3 0 8 -4 11 -10z m1090 0 c-3 -5 -11 -10 -16 -10 -6 0 -7 5 -4 10
3 6 11 10 16 10 6 0 7 -4 4 -10z m-966 -3 c-2 -1 -11 -8 -20 -15 -14 -10 -18
-10 -23 3 -4 11 1 15 21 15 14 0 24 -1 22 -3z m898 -19 c-3 -8 -6 -5 -6 6 -1
11 2 17 5 13 3 -3 4 -12 1 -19z m-877 -3 c-7 -8 -17 -15 -22 -15 -6 0 -5 7 2
15 7 8 17 15 22 15 6 0 5 -7 -2 -15z m1005 5 c3 -5 1 -10 -4 -10 -6 0 -11 5
-11 10 0 6 2 10 4 10 3 0 8 -4 11 -10z m-1175 -10 c0 -5 -5 -10 -11 -10 -5 0
-7 5 -4 10 3 6 8 10 11 10 2 0 4 -4 4 -10z m1083 -2 c-21 -10 -22 -12 -5 -25
15 -12 14 -13 -7 -2 -24 11 -24 12 -6 25 10 8 24 14 29 13 6 0 1 -5 -11 -11z
m-2553 -27 c0 -11 -9 -21 -22 -24 -32 -9 -34 0 -7 22 30 25 29 25 29 2z
m-1200 -1 c0 -5 -4 -10 -10 -10 -5 0 -10 5 -10 10 0 6 5 10 10 10 6 0 10 -4
10 -10z m3940 -17 c23 -11 21 -12 -23 -11 -44 1 -46 2 -30 18 10 9 20 14 23
11 3 -4 16 -12 30 -18z m-3885 7 c3 -5 1 -10 -4 -10 -6 0 -11 5 -11 10 0 6 2
10 4 10 3 0 8 -4 11 -10z m1320 -9 c-3 -6 -11 -8 -17 -5 -6 4 -5 9 3 15 16 10
23 4 14 -10z m-1234 -9 c-7 -2 -18 1 -23 6 -8 8 -4 9 13 5 13 -4 18 -8 10 -11z
m2579 8 c0 -5 -5 -10 -11 -10 -5 0 -7 5 -4 10 3 6 8 10 11 10 2 0 4 -4 4 -10z
m-1663 -6 c-3 -3 -12 -4 -19 -1 -8 3 -5 6 6 6 11 1 17 -2 13 -5z m38 -14 c3
-5 1 -10 -4 -10 -6 0 -11 5 -11 10 0 6 2 10 4 10 3 0 8 -4 11 -10z m2855 -25
c0 -20 -28 -31 -43 -16 -8 8 -7 11 6 11 9 0 17 5 17 10 0 6 5 10 10 10 6 0 10
-7 10 -15z m-3890 -14 c0 -4 -7 -8 -15 -8 -16 0 -20 9 -9 20 8 8 24 -1 24 -12z
m3914 -36 c-6 -16 -24 -21 -24 -7 0 11 11 22 21 22 5 0 6 -7 3 -15z m-2974
-75 c0 -5 -2 -10 -4 -10 -3 0 -8 5 -11 10 -3 6 -1 10 4 10 6 0 11 -4 11 -10z
m-40 -35 c0 -8 -4 -15 -10 -15 -5 0 -10 7 -10 15 0 8 5 15 10 15 6 0 10 -7 10
-15z m40 -25 c0 -5 -2 -10 -4 -10 -3 0 -8 5 -11 10 -3 6 -1 10 4 10 6 0 11 -4
11 -10z m-1083 -36 c-3 -3 -12 -4 -19 -1 -8 3 -5 6 6 6 11 1 17 -2 13 -5z
m-90 -30 c-3 -3 -12 -4 -19 -1 -8 3 -5 6 6 6 11 1 17 -2 13 -5z m1163 -20 c0
-2 -7 -4 -15 -4 -8 0 -15 4 -15 10 0 5 7 7 15 4 8 -4 15 -8 15 -10z m-1167
-27 c-3 -4 -6 -7 -7 -5 -1 2 -8 12 -16 22 -14 18 -14 18 7 6 12 -8 19 -18 16
-23z m1147 9 c0 -3 -4 -8 -10 -11 -5 -3 -10 -1 -10 4 0 6 5 11 10 11 6 0 10
-2 10 -4z m20 -25 c0 -14 -28 -33 -40 -26 -16 10 -12 28 5 21 8 -3 15 -1 15 4
0 6 5 10 10 10 6 0 10 -4 10 -9z m-1150 -45 c0 -2 -7 -7 -16 -10 -8 -3 -12 -2
-9 4 6 10 25 14 25 6z m1153 -13 c-7 -3 -13 -12 -14 -21 0 -13 -2 -13 -8 3 -6
14 -4 22 8 26 9 4 18 4 21 1 3 -2 -1 -7 -7 -9z m-37 -60 c-10 -10 -19 5 -10
18 6 11 8 11 12 0 2 -7 1 -15 -2 -18z m2041 5 c-3 -8 -6 -5 -6 6 -1 11 2 17 5
13 3 -3 4 -12 1 -19z m-1967 -4 c0 -2 -9 -4 -21 -4 -11 0 -18 4 -14 10 5 8 35
3 35 -6z m-50 -32 c0 -4 -9 -8 -20 -8 -11 0 -20 4 -20 8 0 4 9 8 20 8 11 0 20
-4 20 -8z m2040 -32 c0 -5 -9 -10 -21 -10 -11 0 -17 5 -14 10 3 6 13 10 21 10
8 0 14 -4 14 -10z"/>
<path d="M6887 8426 c12 -9 33 -15 47 -14 34 3 20 14 -29 22 -38 7 -39 7 -18
-8z"/>
<path d="M6991 8369 c13 -9 29 -15 36 -12 24 9 13 21 -23 25 -35 4 -35 4 -13
-13z"/>
<path d="M7058 8363 c6 -2 18 -2 25 0 6 3 1 5 -13 5 -14 0 -19 -2 -12 -5z"/>
<path d="M7105 8360 c3 -5 10 -10 16 -10 5 0 9 5 9 10 0 6 -7 10 -16 10 -8 0
-12 -4 -9 -10z"/>
<path d="M3408 2783 c7 -3 16 -2 19 1 4 3 -2 6 -13 5 -11 0 -14 -3 -6 -6z"/>
<path d="M3280 2750 c-13 -8 -13 -10 2 -10 9 0 20 5 23 10 8 13 -5 13 -25 0z"/>
<path d="M2990 2310 c0 -5 4 -10 9 -10 6 0 13 5 16 10 3 6 -1 10 -9 10 -9 0
-16 -4 -16 -10z"/>
<path d="M5740 2150 c0 -5 5 -10 10 -10 6 0 10 5 10 10 0 6 -4 10 -10 10 -5 0
-10 -4 -10 -10z"/>
<path d="M5910 1959 c0 -5 5 -7 10 -4 6 3 10 8 10 11 0 2 -4 4 -10 4 -5 0 -10
-5 -10 -11z"/>
<path d="M5940 1945 c0 -14 2 -25 4 -25 2 0 6 11 8 25 3 14 1 25 -3 25 -5 0
-9 -11 -9 -25z"/>
<path d="M2950 1820 c0 -5 7 -10 15 -10 8 0 15 5 15 10 0 6 -7 10 -15 10 -8 0
-15 -4 -15 -10z"/>
<path d="M5535 1789 c-4 -6 -5 -12 -2 -15 2 -3 7 2 10 11 7 17 1 20 -8 4z"/>
<path d="M3120 1769 c0 -5 5 -7 10 -4 6 3 10 8 10 11 0 2 -4 4 -10 4 -5 0 -10
-5 -10 -11z"/>
<path d="M2980 1729 c0 -5 5 -7 10 -4 6 3 10 8 10 11 0 2 -4 4 -10 4 -5 0 -10
-5 -10 -11z"/>
<path d="M5650 1730 c0 -5 5 -10 10 -10 6 0 10 5 10 10 0 6 -4 10 -10 10 -5 0
-10 -4 -10 -10z"/>
<path d="M2987 1693 c-4 -3 -7 -11 -7 -17 0 -6 5 -5 12 2 6 6 9 14 7 17 -3 3
-9 2 -12 -2z"/>
<path d="M3337 1678 c-5 -20 -4 -21 6 -7 7 9 21 19 32 22 16 4 14 5 -6 6 -20
1 -28 -5 -32 -21z"/>
<path d="M5640 1691 c0 -22 13 -41 28 -41 13 0 12 3 -4 15 -16 13 -17 16 -4
25 13 8 13 10 -2 10 -10 0 -18 -4 -18 -9z"/>
<path d="M3395 1670 c-3 -6 1 -7 9 -4 18 7 21 14 7 14 -6 0 -13 -4 -16 -10z"/>
<path d="M3295 1660 c-3 -6 1 -7 9 -4 18 7 21 14 7 14 -6 0 -13 -4 -16 -10z"/>
<path d="M5600 1661 c0 -6 4 -13 10 -16 6 -3 7 1 4 9 -7 18 -14 21 -14 7z"/>
<path d="M3390 1640 c0 -5 5 -10 10 -10 6 0 10 5 10 10 0 6 -4 10 -10 10 -5 0
-10 -4 -10 -10z"/>
<path d="M3298 1624 c6 -3 12 -12 12 -21 0 -19 34 -13 38 7 2 11 -7 16 -30 17
-18 1 -27 -1 -20 -3z"/>
<path d="M5631 1614 c0 -11 3 -14 6 -6 3 7 2 16 -1 19 -3 4 -6 -2 -5 -13z"/>
<path d="M3360 1606 c0 -8 -4 -16 -10 -18 -5 -1 -7 -13 -4 -24 4 -15 13 -21
30 -20 26 1 34 16 9 16 -18 0 -20 31 -3 48 9 9 8 12 -5 12 -9 0 -17 -6 -17
-14z"/>
<path d="M5590 1599 c7 -11 14 -19 16 -16 7 7 -7 37 -17 37 -6 0 -5 -9 1 -21z"/>
<path d="M5630 1576 c0 -9 5 -16 10 -16 6 0 10 4 10 9 0 6 -4 13 -10 16 -5 3
-10 -1 -10 -9z"/>
<path d="M2800 1540 c0 -5 5 -10 11 -10 5 0 7 5 4 10 -3 6 -8 10 -11 10 -2 0
-4 -4 -4 -10z"/>
<path d="M3375 1520 c3 -5 10 -10 16 -10 5 0 9 5 9 10 0 6 -7 10 -16 10 -8 0
-12 -4 -9 -10z"/>
<path d="M5630 1520 c0 -5 5 -10 10 -10 6 0 10 5 10 10 0 6 -4 10 -10 10 -5 0
-10 -4 -10 -10z"/>
<path d="M5660 1491 c0 -6 4 -13 10 -16 6 -3 7 1 4 9 -7 18 -14 21 -14 7z"/>
<path d="M3250 1470 c0 -5 5 -10 11 -10 5 0 7 5 4 10 -3 6 -8 10 -11 10 -2 0
-4 -4 -4 -10z"/>
<path d="M5630 1470 c0 -5 5 -10 11 -10 5 0 7 5 4 10 -3 6 -8 10 -11 10 -2 0
-4 -4 -4 -10z"/>
<path d="M6170 1460 c0 -5 5 -10 11 -10 5 0 7 5 4 10 -3 6 -8 10 -11 10 -2 0
-4 -4 -4 -10z"/>
<path d="M6230 1461 c0 -5 5 -13 10 -16 6 -3 10 -2 10 4 0 5 -4 13 -10 16 -5
3 -10 2 -10 -4z"/>
<path d="M5730 1425 c0 -8 5 -15 10 -15 6 0 10 7 10 15 0 8 -4 15 -10 15 -5 0
-10 -7 -10 -15z"/>
<path d="M3138 1423 c7 -3 16 -2 19 1 4 3 -2 6 -13 5 -11 0 -14 -3 -6 -6z"/>
<path d="M3050 1412 c0 -5 7 -9 15 -9 8 0 12 4 9 9 -3 4 -9 8 -15 8 -5 0 -9
-4 -9 -8z"/>
<path d="M5545 1410 c3 -5 8 -10 11 -10 2 0 4 5 4 10 0 6 -5 10 -11 10 -5 0
-7 -4 -4 -10z"/>
<path d="M5770 1410 c0 -5 5 -10 11 -10 5 0 7 5 4 10 -3 6 -8 10 -11 10 -2 0
-4 -4 -4 -10z"/>
<path d="M3122 1373 c2 -10 12 -19 23 -21 19 -3 19 -2 3 11 -10 8 -15 17 -11
20 3 4 1 7 -6 7 -7 0 -11 -8 -9 -17z"/>
<path d="M5780 1350 c0 -13 7 -20 20 -20 18 0 19 2 8 20 -7 11 -16 20 -20 20
-5 0 -8 -9 -8 -20z"/>
<path d="M5750 1307 c0 -22 11 -27 26 -12 19 19 18 25 -6 25 -11 0 -20 -6 -20
-13z"/>
<path d="M3055 1300 c-3 -5 -1 -10 4 -10 6 0 11 5 11 10 0 6 -2 10 -4 10 -3 0
-8 -4 -11 -10z"/>
<path d="M5605 1280 c-3 -5 1 -10 9 -10 9 0 16 5 16 10 0 6 -4 10 -9 10 -6 0
-13 -4 -16 -10z"/>
<path d="M2659 1264 c-10 -13 -10 -17 1 -24 9 -6 18 -4 23 3 7 9 10 9 14 0 5
-15 33 -18 33 -4 0 25 -55 44 -71 25z"/>
<path d="M3075 1270 c-3 -5 -1 -10 4 -10 6 0 11 5 11 10 0 6 -2 10 -4 10 -3 0
-8 -4 -11 -10z"/>
<path d="M5920 1215 c0 -8 -7 -15 -15 -15 -8 0 -15 5 -15 10 0 6 -4 10 -9 10
-5 0 -7 -8 -4 -18 3 -14 12 -17 33 -14 32 5 47 27 24 36 -8 3 -14 -1 -14 -9z"/>
<path d="M2700 1210 c0 -5 5 -10 10 -10 6 0 10 5 10 10 0 6 -4 10 -10 10 -5 0
-10 -4 -10 -10z"/>
<path d="M3036 1185 c-3 -8 -1 -15 4 -15 6 0 10 7 10 15 0 8 -2 15 -4 15 -2 0
-6 -7 -10 -15z"/>
<path d="M5941 1164 c0 -11 3 -14 6 -6 3 7 2 16 -1 19 -3 4 -6 -2 -5 -13z"/>
<path d="M6000 1175 c0 -5 5 -17 10 -25 5 -8 10 -10 10 -5 0 6 -5 17 -10 25
-5 8 -10 11 -10 5z"/>
<path d="M6105 1170 c3 -5 8 -10 11 -10 2 0 4 5 4 10 0 6 -5 10 -11 10 -5 0
-7 -4 -4 -10z"/>
<path d="M2855 1150 c3 -5 14 -10 23 -10 15 0 15 2 2 10 -20 13 -33 13 -25 0z"/>
<path d="M5880 1150 c-22 -7 -21 -8 13 -9 20 -1 37 4 37 9 0 11 -14 11 -50 0z"/>
<path d="M6120 1140 c0 -5 5 -10 11 -10 5 0 7 5 4 10 -3 6 -8 10 -11 10 -2 0
-4 -4 -4 -10z"/>
<path d="M5599 1123 c-13 -17 -13 -17 6 -3 11 8 22 16 24 17 2 2 0 3 -6 3 -6
0 -17 -8 -24 -17z"/>
<path d="M2972 1098 c2 -13 8 -23 13 -23 6 0 11 10 13 23 2 15 -2 22 -13 22
-11 0 -15 -7 -13 -22z"/>
<path d="M3361 1104 c0 -11 3 -14 6 -6 3 7 2 16 -1 19 -3 4 -6 -2 -5 -13z"/>
<path d="M2235 1100 c-3 -5 -1 -10 4 -10 6 0 11 5 11 10 0 6 -2 10 -4 10 -3 0
-8 -4 -11 -10z"/>
<path d="M5917 1080 c-3 -11 -1 -20 4 -20 5 0 9 9 9 20 0 11 -2 20 -4 20 -2 0
-6 -9 -9 -20z"/>
<path d="M5940 1075 c0 -8 5 -15 10 -15 6 0 10 4 10 9 0 5 8 12 18 14 10 3 6
5 -10 6 -19 1 -28 -4 -28 -14z"/>
<path d="M6226 1075 c-19 -15 -19 -15 1 -15 11 0 23 7 27 15 7 19 -3 19 -28 0z"/>
<path d="M2770 1070 c0 -5 5 -10 11 -10 5 0 7 5 4 10 -3 6 -8 10 -11 10 -2 0
-4 -4 -4 -10z"/>
<path d="M3367 1065 c-4 -8 -1 -17 5 -21 7 -4 8 -3 4 4 -4 7 -1 12 8 12 9 0
16 5 16 10 0 16 -27 12 -33 -5z"/>
<path d="M6280 1071 c8 -6 11 -11 6 -11 -5 0 -3 -7 4 -15 7 -8 22 -15 34 -14
20 1 20 1 1 7 -11 4 -20 14 -20 22 0 8 -9 16 -20 18 -16 3 -17 1 -5 -7z"/>
<path d="M5965 1040 c-3 -5 -1 -10 4 -10 6 0 11 5 11 10 0 6 -2 10 -4 10 -3 0
-8 -4 -11 -10z"/>
<path d="M6192 1034 c-11 -12 -9 -14 8 -14 11 0 20 4 20 9 0 17 -15 19 -28 5z"/>
<path d="M3380 1020 c0 -6 -5 -8 -12 -4 -7 4 -8 3 -4 -4 10 -17 79 -16 74 1
-6 15 -58 22 -58 7z"/>
<path d="M6405 1000 c3 -5 8 -10 11 -10 2 0 4 5 4 10 0 6 -5 10 -11 10 -5 0
-7 -4 -4 -10z"/>
<path d="M3412 969 c2 -7 10 -15 17 -17 8 -3 12 1 9 9 -2 7 -10 15 -17 17 -8
3 -12 -1 -9 -9z"/>
<path d="M3365 960 c3 -5 13 -10 21 -10 8 0 12 5 9 10 -3 6 -13 10 -21 10 -8
0 -12 -4 -9 -10z"/>
<path d="M2736 906 c3 -8 12 -12 21 -9 12 5 12 7 1 14 -20 13 -28 11 -22 -5z"/>
<path d="M4242 911 c2 -7 7 -12 11 -12 12 1 9 15 -3 20 -7 2 -11 -2 -8 -8z"/>
<path d="M5525 910 c-3 -5 -1 -10 4 -10 6 0 11 5 11 10 0 6 -2 10 -4 10 -3 0
-8 -4 -11 -10z"/>
<path d="M6395 910 c3 -5 11 -7 18 -5 7 3 21 -8 32 -25 28 -42 39 -38 14 5
-15 25 -28 35 -46 35 -13 0 -22 -4 -18 -10z"/>
<path d="M4905 890 c3 -5 12 -7 20 -3 21 7 19 13 -6 13 -11 0 -18 -4 -14 -10z"/>
<path d="M3480 869 c0 -5 5 -7 10 -4 6 3 10 8 10 11 0 2 -4 4 -10 4 -5 0 -10
-5 -10 -11z"/>
<path d="M4265 870 c-3 -5 -1 -10 4 -10 6 0 11 5 11 10 0 6 -2 10 -4 10 -3 0
-8 -4 -11 -10z"/>
<path d="M4231 854 c0 -11 3 -14 6 -6 3 7 2 16 -1 19 -3 4 -6 -2 -5 -13z"/>
<path d="M4700 860 c0 -5 5 -10 10 -10 6 0 10 5 10 10 0 6 -4 10 -10 10 -5 0
-10 -4 -10 -10z"/>
<path d="M3850 850 c0 -5 5 -10 11 -10 5 0 7 5 4 10 -3 6 -8 10 -11 10 -2 0
-4 -4 -4 -10z"/>
<path d="M5500 840 c0 -5 5 -10 10 -10 6 0 10 5 10 10 0 6 -4 10 -10 10 -5 0
-10 -4 -10 -10z"/>
<path d="M2670 829 c0 -5 5 -7 11 -3 6 3 15 0 20 -7 4 -7 11 -10 16 -6 8 9
-15 27 -34 27 -7 0 -13 -5 -13 -11z"/>
<path d="M3552 820 c-13 -11 -21 -25 -19 -32 4 -10 6 -10 6 0 1 6 8 12 16 12
8 0 15 5 15 10 0 6 7 10 16 10 8 0 12 5 9 10 -9 14 -17 12 -43 -10z"/>
<path d="M4243 833 c-17 -6 -16 -33 1 -33 7 0 16 9 19 20 5 20 2 22 -20 13z"/>
<path d="M3830 822 c0 -5 6 -17 14 -27 13 -18 14 -18 9 8 -5 24 -23 39 -23 19z"/>
<path d="M4705 806 c16 -24 44 -41 52 -32 3 2 -5 9 -16 16 -12 6 -21 17 -21
25 0 8 -7 15 -15 15 -14 0 -14 -3 0 -24z"/>
<path d="M5430 820 c0 -5 4 -10 9 -10 6 0 13 5 16 10 3 6 -1 10 -9 10 -9 0
-16 -4 -16 -10z"/>
<path d="M5125 810 c3 -5 8 -10 11 -10 2 0 4 5 4 10 0 6 -5 10 -11 10 -5 0 -7
-4 -4 -10z"/>
<path d="M4195 790 c4 -13 0 -23 -13 -31 -12 -7 -18 -19 -14 -27 3 -10 1 -13
-6 -8 -8 5 -10 2 -6 -8 9 -23 23 -19 34 9 6 17 14 23 25 19 13 -5 15 -1 9 22
-9 37 -13 44 -25 44 -6 0 -8 -9 -4 -20z"/>
<path d="M5396 795 c-3 -8 -1 -15 4 -15 13 0 22 18 11 24 -5 3 -11 -1 -15 -9z"/>
<path d="M4825 790 c-3 -5 1 -10 10 -10 9 0 13 5 10 10 -3 6 -8 10 -10 10 -2
0 -7 -4 -10 -10z"/>
<path d="M3670 765 c0 -8 4 -15 10 -15 5 0 7 7 4 15 -4 8 -8 15 -10 15 -2 0
-4 -7 -4 -15z"/>
<path d="M5357 774 c-8 -14 8 -37 22 -33 8 3 8 10 -2 23 -8 11 -17 15 -20 10z"/>
<path d="M3856 761 c-4 -5 3 -7 14 -4 23 6 26 13 6 13 -8 0 -17 -4 -20 -9z"/>
<path d="M4727 754 c3 -8 14 -14 25 -14 23 0 16 16 -11 23 -14 3 -18 1 -14 -9z"/>
<path d="M4886 761 c-3 -5 1 -14 8 -20 18 -15 28 0 10 16 -7 7 -15 9 -18 4z"/>
<path d="M5275 760 c3 -5 17 -10 31 -10 14 0 22 4 19 10 -3 6 -17 10 -31 10
-14 0 -22 -4 -19 -10z"/>
<path d="M2592 747 c-8 -10 -6 -13 7 -13 11 0 17 6 14 13 -3 7 -6 13 -8 13 -1
0 -7 -6 -13 -13z"/>
<path d="M3788 735 c2 -14 9 -25 14 -25 6 0 7 7 4 16 -3 9 -6 20 -6 25 0 5 -4
9 -9 9 -4 0 -6 -11 -3 -25z"/>
<path d="M4820 733 c0 -15 -2 -16 -10 -3 -6 9 -10 10 -10 3 0 -6 -10 -15 -22
-19 -19 -6 -20 -7 -4 -16 10 -6 28 -8 41 -5 14 2 26 -1 29 -9 3 -8 -1 -14 -9
-14 -7 0 -17 -5 -21 -12 -5 -7 -2 -9 9 -5 9 3 26 -4 42 -19 14 -13 31 -22 36
-19 5 4 9 -4 9 -15 0 -16 5 -20 15 -16 8 3 15 1 15 -4 0 -18 20 -10 21 8 0 10
3 12 6 5 2 -7 11 -13 19 -13 8 0 14 -6 14 -13 0 -8 12 -19 26 -26 23 -10 26
-9 21 4 -4 9 -1 15 8 15 8 0 15 -4 15 -10 0 -5 7 -10 15 -10 8 0 15 5 15 10 0
6 7 10 15 10 8 0 15 -4 15 -10 0 -5 7 -10 15 -10 22 0 19 40 -2 41 -10 1 -21
1 -25 0 -5 0 -8 8 -8 20 0 15 -5 19 -15 15 -9 -3 -15 0 -15 9 0 8 -4 15 -10
15 -17 0 -11 18 7 22 13 2 11 6 -9 15 -22 10 -29 9 -40 -4 -11 -15 -11 -16 5
-10 12 4 17 1 17 -11 0 -20 -44 -39 -77 -34 -15 2 -23 10 -23 24 0 16 -5 19
-26 15 -23 -4 -25 -2 -19 20 5 21 3 24 -13 19 -23 -8 -45 15 -36 38 4 12 0 16
-15 16 -13 0 -21 -6 -21 -17z m127 -129 c-3 -3 -12 -4 -19 -1 -8 3 -5 6 6 6
11 1 17 -2 13 -5z"/>
<path d="M5170 740 c0 -5 7 -10 15 -10 8 0 15 5 15 10 0 6 -7 10 -15 10 -8 0
-15 -4 -15 -10z"/>
<path d="M4955 728 c5 -12 2 -18 -8 -18 -9 0 -19 -4 -22 -10 -3 -5 3 -10 15
-10 25 0 38 27 21 43 -9 9 -11 8 -6 -5z"/>
<path d="M5280 730 c0 -13 11 -13 30 0 12 8 11 10 -7 10 -13 0 -23 -4 -23 -10z"/>
<path d="M4110 720 c12 -8 11 -10 -7 -10 -13 0 -23 -4 -23 -10 0 -5 5 -10 10
-10 6 0 10 -4 10 -10 0 -5 -7 -7 -15 -4 -10 4 -15 0 -15 -13 0 -28 -20 -45
-37 -32 -18 16 -17 1 2 -17 13 -14 17 -13 37 0 12 9 19 16 15 16 -4 0 1 9 10
20 10 11 28 20 40 20 13 0 23 2 23 5 0 10 -44 55 -54 55 -6 0 -4 -5 4 -10z"/>
<path d="M2510 679 c0 -11 5 -17 10 -14 6 3 10 13 10 21 0 8 -4 14 -10 14 -5
0 -10 -9 -10 -21z"/>
<path d="M3820 671 c0 -6 5 -13 10 -16 6 -3 10 1 10 9 0 9 -4 16 -10 16 -5 0
-10 -4 -10 -9z"/>
<path d="M2525 611 c-3 -5 -1 -12 5 -16 5 -3 10 1 10 9 0 18 -6 21 -15 7z"/>
<path d="M3878 603 c7 -3 16 -2 19 1 4 3 -2 6 -13 5 -11 0 -14 -3 -6 -6z"/>
<path d="M2510 486 c0 -9 5 -16 10 -16 6 0 10 4 10 9 0 6 -4 13 -10 16 -5 3
-10 -1 -10 -9z"/>
<path d="M5320 490 c0 -5 5 -10 10 -10 6 0 10 5 10 10 0 6 -4 10 -10 10 -5 0
-10 -4 -10 -10z"/>
<path d="M2431 473 c7 -10 15 -20 16 -22 2 -2 3 5 3 17 0 14 -6 22 -16 22 -14
0 -15 -3 -3 -17z"/>
<path d="M5360 478 c0 -4 7 -8 15 -8 8 0 15 4 15 8 0 5 -7 9 -15 9 -8 0 -15
-4 -15 -9z"/>
<path d="M3770 456 c0 -4 7 -14 15 -22 8 -9 15 -11 15 -6 0 5 -7 15 -15 22 -8
7 -15 9 -15 6z"/>
<path d="M5452 388 c-9 -9 -7 -15 6 -25 16 -13 15 -14 -6 -10 -12 3 -20 1 -16
-4 8 -14 34 -11 40 5 9 23 -9 49 -24 34z"/>
<path d="M5387 356 c-3 -8 -1 -16 5 -18 7 -3 8 -10 4 -17 -6 -9 -11 -9 -22 0
-10 8 -14 8 -14 0 0 -6 5 -11 10 -11 14 0 12 -27 -2 -33 -8 -4 -7 -6 3 -6 17
-1 36 38 37 77 1 25 -13 30 -21 8z"/>
<path d="M5473 338 c-23 -11 -39 -51 -23 -56 6 -2 10 -11 11 -20 0 -13 3 -11
11 6 6 12 15 22 20 22 5 0 6 5 3 10 -4 6 -2 17 5 25 15 18 0 25 -27 13z"/>
<path d="M3768 313 c7 -3 16 -2 19 1 4 3 -2 6 -13 5 -11 0 -14 -3 -6 -6z"/>
<path d="M5410 280 c0 -5 5 -10 10 -10 6 0 10 5 10 10 0 6 -4 10 -10 10 -5 0
-10 -4 -10 -10z"/>
<path d="M5487 274 c-9 -9 4 -35 14 -28 5 3 9 12 9 20 0 14 -12 19 -23 8z"/>
<path d="M3744 238 l-19 -21 28 18 c28 18 33 25 19 25 -5 0 -17 -10 -28 -22z"/>
<path d="M5371 234 c0 -11 3 -14 6 -6 3 7 2 16 -1 19 -3 4 -6 -2 -5 -13z"/>
<path d="M3700 210 c-12 -45 -7 -58 21 -62 23 -4 33 0 41 15 9 18 7 19 -17 15
-21 -4 -28 -1 -35 16 -5 11 -9 19 -10 16z"/>
<path d="M5370 149 c0 -5 5 -7 10 -4 6 3 10 8 10 11 0 2 -4 4 -10 4 -5 0 -10
-5 -10 -11z"/>
<path d="M5516 115 c-4 -10 1 -15 16 -15 17 0 18 2 8 15 -7 8 -14 15 -15 15
-2 0 -5 -7 -9 -15z"/>
<path d="M5380 90 c0 -5 5 -10 10 -10 6 0 10 5 10 10 0 6 -4 10 -10 10 -5 0
-10 -4 -10 -10z"/>
<path d="M3552 20 c15 -23 38 -27 38 -5 0 9 -6 12 -15 9 -8 -4 -15 -1 -15 5 0
6 -5 11 -10 11 -6 0 -5 -8 2 -20z"/>
<path d="M3710 31 c0 -6 5 -13 10 -16 6 -3 10 1 10 9 0 9 -4 16 -10 16 -5 0
-10 -4 -10 -9z"/>
</g>
</svg>
